<mxfile host="app.diagrams.net" modified="2022-04-07T09:33:49.124Z" agent="5.0 (Windows NT 10.0; Win64; x64) AppleWebKit/537.36 (KHTML, like Gecko) Chrome/100.0.4896.75 Safari/537.36" etag="7Pmy_oahR2M4diP5RCZv" version="17.4.0" type="github">
  <diagram id="srN4nmBYnJMib8t1ujK9" name="Page-1">
    <mxGraphModel dx="1422" dy="794" grid="1" gridSize="10" guides="1" tooltips="1" connect="1" arrows="1" fold="1" page="1" pageScale="1" pageWidth="850" pageHeight="1100" math="0" shadow="0">
      <root>
        <mxCell id="0" />
        <mxCell id="1" parent="0" />
        <mxCell id="OPYaN5MUstWQW3dpNTHb-1" value="Web" style="rounded=1;whiteSpace=wrap;html=1;fillColor=#b1ddf0;strokeColor=#10739e;" vertex="1" parent="1">
          <mxGeometry x="165" y="40" width="80" height="60" as="geometry" />
        </mxCell>
        <mxCell id="OPYaN5MUstWQW3dpNTHb-2" value="Mobile" style="rounded=1;whiteSpace=wrap;html=1;fillColor=#b1ddf0;strokeColor=#10739e;" vertex="1" parent="1">
          <mxGeometry x="280" y="80" width="80" height="60" as="geometry" />
        </mxCell>
        <mxCell id="OPYaN5MUstWQW3dpNTHb-3" value="Bluetooth" style="rounded=1;whiteSpace=wrap;html=1;fillColor=#b1ddf0;strokeColor=#10739e;" vertex="1" parent="1">
          <mxGeometry x="425" y="80" width="80" height="60" as="geometry" />
        </mxCell>
        <mxCell id="OPYaN5MUstWQW3dpNTHb-4" value="Arduino" style="rounded=1;whiteSpace=wrap;html=1;fillColor=#b1ddf0;strokeColor=#10739e;" vertex="1" parent="1">
          <mxGeometry x="530" y="80" width="80" height="60" as="geometry" />
        </mxCell>
        <mxCell id="OPYaN5MUstWQW3dpNTHb-5" value="Wi-Fi" style="rounded=1;whiteSpace=wrap;html=1;fillColor=#b1ddf0;strokeColor=#10739e;" vertex="1" parent="1">
          <mxGeometry x="640" y="80" width="80" height="60" as="geometry" />
        </mxCell>
        <mxCell id="OPYaN5MUstWQW3dpNTHb-6" value="Cloud" style="rounded=1;whiteSpace=wrap;html=1;fillColor=#b1ddf0;strokeColor=#10739e;" vertex="1" parent="1">
          <mxGeometry x="745" y="40" width="80" height="60" as="geometry" />
        </mxCell>
        <mxCell id="OPYaN5MUstWQW3dpNTHb-7" value="" style="group" vertex="1" connectable="0" parent="1">
          <mxGeometry x="40" y="60" width="100" height="60" as="geometry" />
        </mxCell>
        <mxCell id="OPYaN5MUstWQW3dpNTHb-8" value="Locatar" style="shape=umlActor;verticalLabelPosition=bottom;verticalAlign=top;html=1;outlineConnect=0;" vertex="1" parent="OPYaN5MUstWQW3dpNTHb-7">
          <mxGeometry width="30" height="60" as="geometry" />
        </mxCell>
        <mxCell id="OPYaN5MUstWQW3dpNTHb-10" value="" style="rounded=1;whiteSpace=wrap;html=1;fillColor=#fff2cc;strokeColor=#d6b656;" vertex="1" parent="1">
          <mxGeometry x="190" y="190" width="20" height="450" as="geometry" />
        </mxCell>
        <mxCell id="OPYaN5MUstWQW3dpNTHb-11" value="" style="rounded=1;whiteSpace=wrap;html=1;fillColor=#fff2cc;strokeColor=#d6b656;" vertex="1" parent="1">
          <mxGeometry x="775" y="180" width="20" height="450" as="geometry" />
        </mxCell>
        <mxCell id="OPYaN5MUstWQW3dpNTHb-12" value="" style="endArrow=none;dashed=1;html=1;rounded=0;" edge="1" parent="1">
          <mxGeometry width="50" height="50" relative="1" as="geometry">
            <mxPoint x="200" y="180" as="sourcePoint" />
            <mxPoint x="200" y="110" as="targetPoint" />
          </mxGeometry>
        </mxCell>
        <mxCell id="OPYaN5MUstWQW3dpNTHb-16" value="" style="rounded=1;whiteSpace=wrap;html=1;fillColor=#fff2cc;strokeColor=#d6b656;" vertex="1" parent="1">
          <mxGeometry x="310" y="400" width="20" height="240" as="geometry" />
        </mxCell>
        <mxCell id="OPYaN5MUstWQW3dpNTHb-18" value="" style="endArrow=none;dashed=1;html=1;rounded=0;entryX=0.5;entryY=1;entryDx=0;entryDy=0;exitX=0.5;exitY=0;exitDx=0;exitDy=0;" edge="1" parent="1" source="OPYaN5MUstWQW3dpNTHb-16" target="OPYaN5MUstWQW3dpNTHb-2">
          <mxGeometry width="50" height="50" relative="1" as="geometry">
            <mxPoint x="490" y="310" as="sourcePoint" />
            <mxPoint x="540" y="260" as="targetPoint" />
          </mxGeometry>
        </mxCell>
        <mxCell id="OPYaN5MUstWQW3dpNTHb-19" value="" style="endArrow=none;dashed=1;html=1;rounded=0;entryX=0.5;entryY=1;entryDx=0;entryDy=0;exitX=0.5;exitY=0;exitDx=0;exitDy=0;" edge="1" parent="1" source="OPYaN5MUstWQW3dpNTHb-11" target="OPYaN5MUstWQW3dpNTHb-6">
          <mxGeometry width="50" height="50" relative="1" as="geometry">
            <mxPoint x="490" y="310" as="sourcePoint" />
            <mxPoint x="540" y="260" as="targetPoint" />
          </mxGeometry>
        </mxCell>
        <mxCell id="OPYaN5MUstWQW3dpNTHb-20" value="" style="rounded=1;whiteSpace=wrap;html=1;fillColor=#fff2cc;strokeColor=#d6b656;" vertex="1" parent="1">
          <mxGeometry x="455" y="400" width="20" height="240" as="geometry" />
        </mxCell>
        <mxCell id="OPYaN5MUstWQW3dpNTHb-21" value="" style="rounded=1;whiteSpace=wrap;html=1;fillColor=#fff2cc;strokeColor=#d6b656;" vertex="1" parent="1">
          <mxGeometry x="560" y="400" width="20" height="240" as="geometry" />
        </mxCell>
        <mxCell id="OPYaN5MUstWQW3dpNTHb-22" value="" style="rounded=1;whiteSpace=wrap;html=1;fillColor=#fff2cc;strokeColor=#d6b656;" vertex="1" parent="1">
          <mxGeometry x="670" y="400" width="20" height="240" as="geometry" />
        </mxCell>
        <mxCell id="OPYaN5MUstWQW3dpNTHb-23" value="" style="rounded=1;whiteSpace=wrap;html=1;fillColor=#fff2cc;strokeColor=#d6b656;" vertex="1" parent="1">
          <mxGeometry x="630" y="570" width="10" height="60" as="geometry" />
        </mxCell>
        <mxCell id="OPYaN5MUstWQW3dpNTHb-24" value="Senzor temp" style="rounded=1;whiteSpace=wrap;html=1;fillColor=#f8cecc;strokeColor=#b85450;" vertex="1" parent="1">
          <mxGeometry x="610" y="500" width="40" height="60" as="geometry" />
        </mxCell>
        <mxCell id="OPYaN5MUstWQW3dpNTHb-25" value="" style="endArrow=classic;html=1;rounded=0;exitX=0;exitY=0.5;exitDx=0;exitDy=0;" edge="1" parent="1" source="OPYaN5MUstWQW3dpNTHb-23">
          <mxGeometry width="50" height="50" relative="1" as="geometry">
            <mxPoint x="490" y="510" as="sourcePoint" />
            <mxPoint x="590" y="600" as="targetPoint" />
          </mxGeometry>
        </mxCell>
        <mxCell id="OPYaN5MUstWQW3dpNTHb-26" value="" style="endArrow=none;dashed=1;html=1;rounded=0;entryX=0.5;entryY=1;entryDx=0;entryDy=0;" edge="1" parent="1" source="OPYaN5MUstWQW3dpNTHb-22" target="OPYaN5MUstWQW3dpNTHb-5">
          <mxGeometry width="50" height="50" relative="1" as="geometry">
            <mxPoint x="490" y="510" as="sourcePoint" />
            <mxPoint x="540" y="460" as="targetPoint" />
          </mxGeometry>
        </mxCell>
        <mxCell id="OPYaN5MUstWQW3dpNTHb-27" value="" style="endArrow=none;dashed=1;html=1;rounded=0;entryX=0.5;entryY=1;entryDx=0;entryDy=0;" edge="1" parent="1" source="OPYaN5MUstWQW3dpNTHb-21" target="OPYaN5MUstWQW3dpNTHb-4">
          <mxGeometry width="50" height="50" relative="1" as="geometry">
            <mxPoint x="490" y="510" as="sourcePoint" />
            <mxPoint x="540" y="460" as="targetPoint" />
          </mxGeometry>
        </mxCell>
        <mxCell id="OPYaN5MUstWQW3dpNTHb-28" value="" style="endArrow=none;dashed=1;html=1;rounded=0;entryX=0.5;entryY=1;entryDx=0;entryDy=0;exitX=0.5;exitY=0;exitDx=0;exitDy=0;" edge="1" parent="1" source="OPYaN5MUstWQW3dpNTHb-20" target="OPYaN5MUstWQW3dpNTHb-3">
          <mxGeometry width="50" height="50" relative="1" as="geometry">
            <mxPoint x="480" y="360" as="sourcePoint" />
            <mxPoint x="540" y="460" as="targetPoint" />
          </mxGeometry>
        </mxCell>
        <mxCell id="OPYaN5MUstWQW3dpNTHb-29" value="" style="endArrow=classic;startArrow=classic;html=1;rounded=0;" edge="1" parent="1">
          <mxGeometry width="50" height="50" relative="1" as="geometry">
            <mxPoint x="670" y="414.5" as="sourcePoint" />
            <mxPoint x="350" y="414.5" as="targetPoint" />
          </mxGeometry>
        </mxCell>
        <mxCell id="OPYaN5MUstWQW3dpNTHb-30" value="" style="endArrow=classic;startArrow=classic;html=1;rounded=0;" edge="1" parent="1">
          <mxGeometry width="50" height="50" relative="1" as="geometry">
            <mxPoint x="340" y="440" as="sourcePoint" />
            <mxPoint x="440" y="440" as="targetPoint" />
          </mxGeometry>
        </mxCell>
        <mxCell id="OPYaN5MUstWQW3dpNTHb-31" value="" style="endArrow=classic;startArrow=classic;html=1;rounded=0;" edge="1" parent="1">
          <mxGeometry width="50" height="50" relative="1" as="geometry">
            <mxPoint x="480" y="440" as="sourcePoint" />
            <mxPoint x="550" y="440.5" as="targetPoint" />
          </mxGeometry>
        </mxCell>
        <mxCell id="OPYaN5MUstWQW3dpNTHb-32" value="" style="endArrow=classic;startArrow=classic;html=1;rounded=0;" edge="1" parent="1">
          <mxGeometry width="50" height="50" relative="1" as="geometry">
            <mxPoint x="585" y="440" as="sourcePoint" />
            <mxPoint x="660" y="440" as="targetPoint" />
          </mxGeometry>
        </mxCell>
        <mxCell id="OPYaN5MUstWQW3dpNTHb-33" value="" style="rounded=1;whiteSpace=wrap;html=1;fillColor=#fff2cc;strokeColor=#d6b656;" vertex="1" parent="1">
          <mxGeometry x="490" y="580" width="10" height="60" as="geometry" />
        </mxCell>
        <mxCell id="OPYaN5MUstWQW3dpNTHb-34" value="" style="rounded=1;whiteSpace=wrap;html=1;fillColor=#fff2cc;strokeColor=#d6b656;" vertex="1" parent="1">
          <mxGeometry x="510" y="580" width="10" height="60" as="geometry" />
        </mxCell>
        <mxCell id="OPYaN5MUstWQW3dpNTHb-35" value="" style="rounded=1;whiteSpace=wrap;html=1;fillColor=#fff2cc;strokeColor=#d6b656;" vertex="1" parent="1">
          <mxGeometry x="530" y="580" width="10" height="60" as="geometry" />
        </mxCell>
        <mxCell id="OPYaN5MUstWQW3dpNTHb-36" value="" style="endArrow=classic;html=1;rounded=0;exitX=0.75;exitY=1;exitDx=0;exitDy=0;" edge="1" parent="1" source="OPYaN5MUstWQW3dpNTHb-33">
          <mxGeometry width="50" height="50" relative="1" as="geometry">
            <mxPoint x="500" y="650" as="sourcePoint" />
            <mxPoint x="570" y="640" as="targetPoint" />
            <Array as="points">
              <mxPoint x="498" y="690" />
              <mxPoint x="570" y="690" />
            </Array>
          </mxGeometry>
        </mxCell>
        <mxCell id="OPYaN5MUstWQW3dpNTHb-37" value="" style="endArrow=none;html=1;rounded=0;entryX=0.25;entryY=1;entryDx=0;entryDy=0;" edge="1" parent="1" target="OPYaN5MUstWQW3dpNTHb-34">
          <mxGeometry width="50" height="50" relative="1" as="geometry">
            <mxPoint x="513" y="690" as="sourcePoint" />
            <mxPoint x="540" y="360" as="targetPoint" />
            <Array as="points" />
          </mxGeometry>
        </mxCell>
        <mxCell id="OPYaN5MUstWQW3dpNTHb-38" value="lumini" style="rounded=1;whiteSpace=wrap;html=1;rotation=-90;fillColor=#e3c800;fontColor=#000000;strokeColor=#B09500;" vertex="1" parent="1">
          <mxGeometry x="453.75" y="521.25" width="80" height="12.5" as="geometry" />
        </mxCell>
        <mxCell id="OPYaN5MUstWQW3dpNTHb-39" value="valve de caldura" style="rounded=1;whiteSpace=wrap;html=1;rotation=-90;fillColor=#e51400;fontColor=#ffffff;strokeColor=#B20000;" vertex="1" parent="1">
          <mxGeometry x="457.5" y="503.75" width="115" height="12.5" as="geometry" />
        </mxCell>
        <mxCell id="OPYaN5MUstWQW3dpNTHb-40" value="zavor" style="rounded=1;whiteSpace=wrap;html=1;rotation=-90;fillColor=#0050ef;fontColor=#ffffff;strokeColor=#001DBC;" vertex="1" parent="1">
          <mxGeometry x="495" y="521.25" width="80" height="12.5" as="geometry" />
        </mxCell>
        <mxCell id="OPYaN5MUstWQW3dpNTHb-41" value="" style="endArrow=classic;startArrow=classic;html=1;rounded=0;" edge="1" parent="1">
          <mxGeometry width="50" height="50" relative="1" as="geometry">
            <mxPoint x="770" y="410" as="sourcePoint" />
            <mxPoint x="690" y="410" as="targetPoint" />
            <Array as="points" />
          </mxGeometry>
        </mxCell>
        <mxCell id="OPYaN5MUstWQW3dpNTHb-42" value="" style="endArrow=classic;startArrow=classic;html=1;rounded=0;entryX=0.5;entryY=1;entryDx=0;entryDy=0;" edge="1" parent="1" target="OPYaN5MUstWQW3dpNTHb-35">
          <mxGeometry width="50" height="50" relative="1" as="geometry">
            <mxPoint x="535" y="690" as="sourcePoint" />
            <mxPoint x="540" y="350" as="targetPoint" />
          </mxGeometry>
        </mxCell>
        <mxCell id="OPYaN5MUstWQW3dpNTHb-43" value="" style="endArrow=none;dashed=1;html=1;rounded=0;" edge="1" parent="1">
          <mxGeometry width="50" height="50" relative="1" as="geometry">
            <mxPoint x="50" y="640" as="sourcePoint" />
            <mxPoint x="50" y="150" as="targetPoint" />
          </mxGeometry>
        </mxCell>
        <mxCell id="OPYaN5MUstWQW3dpNTHb-44" value="" style="endArrow=classic;html=1;rounded=0;" edge="1" parent="1">
          <mxGeometry width="50" height="50" relative="1" as="geometry">
            <mxPoint x="60" y="200" as="sourcePoint" />
            <mxPoint x="180" y="200" as="targetPoint" />
          </mxGeometry>
        </mxCell>
        <mxCell id="OPYaN5MUstWQW3dpNTHb-45" value="1. Autorizare" style="text;html=1;align=center;verticalAlign=middle;resizable=0;points=[];autosize=1;strokeColor=none;fillColor=none;" vertex="1" parent="1">
          <mxGeometry x="70" y="180" width="80" height="20" as="geometry" />
        </mxCell>
        <mxCell id="OPYaN5MUstWQW3dpNTHb-46" value="" style="endArrow=classic;html=1;rounded=0;" edge="1" parent="1">
          <mxGeometry width="50" height="50" relative="1" as="geometry">
            <mxPoint x="220" y="200" as="sourcePoint" />
            <mxPoint x="770" y="200" as="targetPoint" />
          </mxGeometry>
        </mxCell>
        <mxCell id="OPYaN5MUstWQW3dpNTHb-47" value="2. Verificare" style="text;html=1;align=center;verticalAlign=middle;resizable=0;points=[];autosize=1;strokeColor=none;fillColor=none;" vertex="1" parent="1">
          <mxGeometry x="230" y="180" width="80" height="20" as="geometry" />
        </mxCell>
        <mxCell id="OPYaN5MUstWQW3dpNTHb-48" value="" style="endArrow=classic;html=1;rounded=0;" edge="1" parent="1">
          <mxGeometry width="50" height="50" relative="1" as="geometry">
            <mxPoint x="770" y="220" as="sourcePoint" />
            <mxPoint x="220" y="220" as="targetPoint" />
          </mxGeometry>
        </mxCell>
        <mxCell id="OPYaN5MUstWQW3dpNTHb-49" value="3. Rezultat" style="text;html=1;align=center;verticalAlign=middle;resizable=0;points=[];autosize=1;strokeColor=none;fillColor=none;" vertex="1" parent="1">
          <mxGeometry x="230" y="200" width="70" height="20" as="geometry" />
        </mxCell>
        <mxCell id="OPYaN5MUstWQW3dpNTHb-51" value="" style="endArrow=classic;html=1;rounded=0;" edge="1" parent="1">
          <mxGeometry width="50" height="50" relative="1" as="geometry">
            <mxPoint x="180" y="220" as="sourcePoint" />
            <mxPoint x="60" y="220" as="targetPoint" />
          </mxGeometry>
        </mxCell>
        <mxCell id="OPYaN5MUstWQW3dpNTHb-52" value="4. Rezultat" style="text;html=1;align=center;verticalAlign=middle;resizable=0;points=[];autosize=1;strokeColor=none;fillColor=none;" vertex="1" parent="1">
          <mxGeometry x="75" y="200" width="70" height="20" as="geometry" />
        </mxCell>
        <mxCell id="OPYaN5MUstWQW3dpNTHb-53" value="" style="endArrow=classic;html=1;rounded=0;" edge="1" parent="1">
          <mxGeometry width="50" height="50" relative="1" as="geometry">
            <mxPoint x="60" y="270" as="sourcePoint" />
            <mxPoint x="180" y="270" as="targetPoint" />
          </mxGeometry>
        </mxCell>
        <mxCell id="OPYaN5MUstWQW3dpNTHb-54" value="5: Raport" style="text;html=1;align=center;verticalAlign=middle;resizable=0;points=[];autosize=1;strokeColor=none;fillColor=none;" vertex="1" parent="1">
          <mxGeometry x="60" y="240" width="60" height="20" as="geometry" />
        </mxCell>
        <mxCell id="OPYaN5MUstWQW3dpNTHb-55" value="" style="endArrow=classic;html=1;rounded=0;" edge="1" parent="1">
          <mxGeometry width="50" height="50" relative="1" as="geometry">
            <mxPoint x="220" y="270" as="sourcePoint" />
            <mxPoint x="760" y="270" as="targetPoint" />
          </mxGeometry>
        </mxCell>
        <mxCell id="OPYaN5MUstWQW3dpNTHb-56" value="6: Generare raport" style="text;html=1;align=center;verticalAlign=middle;resizable=0;points=[];autosize=1;strokeColor=none;fillColor=none;" vertex="1" parent="1">
          <mxGeometry x="210" y="250" width="110" height="20" as="geometry" />
        </mxCell>
        <mxCell id="OPYaN5MUstWQW3dpNTHb-57" value="" style="endArrow=classic;html=1;rounded=0;" edge="1" parent="1">
          <mxGeometry width="50" height="50" relative="1" as="geometry">
            <mxPoint x="760" y="290" as="sourcePoint" />
            <mxPoint x="220" y="290" as="targetPoint" />
          </mxGeometry>
        </mxCell>
        <mxCell id="OPYaN5MUstWQW3dpNTHb-58" value="7: Rezultat" style="text;html=1;align=center;verticalAlign=middle;resizable=0;points=[];autosize=1;strokeColor=none;fillColor=none;" vertex="1" parent="1">
          <mxGeometry x="230" y="270" width="70" height="20" as="geometry" />
        </mxCell>
        <mxCell id="OPYaN5MUstWQW3dpNTHb-60" value="" style="endArrow=classic;html=1;rounded=0;" edge="1" parent="1">
          <mxGeometry width="50" height="50" relative="1" as="geometry">
            <mxPoint x="180" y="290" as="sourcePoint" />
            <mxPoint x="60" y="290" as="targetPoint" />
          </mxGeometry>
        </mxCell>
        <mxCell id="OPYaN5MUstWQW3dpNTHb-61" value="8: Rezultat" style="text;html=1;align=center;verticalAlign=middle;resizable=0;points=[];autosize=1;strokeColor=none;fillColor=none;" vertex="1" parent="1">
          <mxGeometry x="80" y="270" width="70" height="20" as="geometry" />
        </mxCell>
        <mxCell id="OPYaN5MUstWQW3dpNTHb-62" value="" style="endArrow=classic;html=1;rounded=0;" edge="1" parent="1">
          <mxGeometry width="50" height="50" relative="1" as="geometry">
            <mxPoint x="60" y="340" as="sourcePoint" />
            <mxPoint x="180" y="340" as="targetPoint" />
          </mxGeometry>
        </mxCell>
        <mxCell id="OPYaN5MUstWQW3dpNTHb-63" value="9: Cerere loguri" style="text;html=1;align=center;verticalAlign=middle;resizable=0;points=[];autosize=1;strokeColor=none;fillColor=none;" vertex="1" parent="1">
          <mxGeometry x="60" y="320" width="100" height="20" as="geometry" />
        </mxCell>
        <mxCell id="OPYaN5MUstWQW3dpNTHb-64" value="" style="endArrow=classic;html=1;rounded=0;" edge="1" parent="1">
          <mxGeometry width="50" height="50" relative="1" as="geometry">
            <mxPoint x="220" y="340" as="sourcePoint" />
            <mxPoint x="770" y="340" as="targetPoint" />
          </mxGeometry>
        </mxCell>
        <mxCell id="OPYaN5MUstWQW3dpNTHb-65" value="10: Interogarea tabelei de loguri" style="text;html=1;align=center;verticalAlign=middle;resizable=0;points=[];autosize=1;strokeColor=none;fillColor=none;" vertex="1" parent="1">
          <mxGeometry x="210" y="320" width="180" height="20" as="geometry" />
        </mxCell>
        <mxCell id="OPYaN5MUstWQW3dpNTHb-66" value="" style="endArrow=classic;html=1;rounded=0;" edge="1" parent="1">
          <mxGeometry width="50" height="50" relative="1" as="geometry">
            <mxPoint x="760" y="360" as="sourcePoint" />
            <mxPoint x="220" y="360" as="targetPoint" />
          </mxGeometry>
        </mxCell>
        <mxCell id="OPYaN5MUstWQW3dpNTHb-67" value="11: Rezultat" style="text;html=1;align=center;verticalAlign=middle;resizable=0;points=[];autosize=1;strokeColor=none;fillColor=none;" vertex="1" parent="1">
          <mxGeometry x="220" y="340" width="80" height="20" as="geometry" />
        </mxCell>
        <mxCell id="OPYaN5MUstWQW3dpNTHb-68" value="" style="endArrow=classic;html=1;rounded=0;" edge="1" parent="1">
          <mxGeometry width="50" height="50" relative="1" as="geometry">
            <mxPoint x="170" y="360" as="sourcePoint" />
            <mxPoint x="60" y="360" as="targetPoint" />
          </mxGeometry>
        </mxCell>
        <mxCell id="OPYaN5MUstWQW3dpNTHb-69" value="12: Rezultat" style="text;html=1;align=center;verticalAlign=middle;resizable=0;points=[];autosize=1;strokeColor=none;fillColor=none;" vertex="1" parent="1">
          <mxGeometry x="75" y="340" width="80" height="20" as="geometry" />
        </mxCell>
      </root>
    </mxGraphModel>
  </diagram>
</mxfile>
